<svg width="234" height="72" viewBox="0 0 234 72" fill="none" xmlns="http://www.w3.org/2000/svg">
<g clip-path="url(#clip0_1282_36625)">
<path d="M216.787 0.975098H14.9404C14.4142 0.975098 13.8881 0.975098 13.3573 0.975098C12.1996 0.992101 11.0447 1.09586 9.90226 1.28552C8.76717 1.4797 7.66805 1.84766 6.64283 2.3767C5.6116 2.90924 4.66898 3.60112 3.84904 4.42736C3.02924 5.25402 2.34405 6.20646 1.81888 7.24938C1.28878 8.29968 0.921309 9.42591 0.729298 10.5888C0.536318 11.7405 0.43356 12.9059 0.421981 14.0739C0.394043 14.6148 0.394043 15.1416 0.394043 15.6778V56.8275C0.394043 57.3684 0.394043 57.8951 0.421981 58.436C0.433964 59.6041 0.536719 60.7694 0.729298 61.9212C0.919647 63.0676 1.28237 64.1779 1.80491 65.2136C2.86116 67.3201 4.54957 69.0354 6.62886 70.1145C7.65453 70.6444 8.75331 71.0154 9.88829 71.215C11.0309 71.4032 12.1857 71.5054 13.3433 71.5208C13.8741 71.5208 14.4003 71.5208 14.9264 71.5208H218.641C219.167 71.5208 219.702 71.5208 220.228 71.5208C221.383 71.5064 222.535 71.4042 223.674 71.215C224.819 71.0147 225.929 70.6438 226.966 70.1145C228.001 69.5875 228.944 68.895 229.76 68.0638C230.584 67.2386 231.272 66.2859 231.799 65.2418C232.317 64.2048 232.676 63.0948 232.866 61.9494C233.058 60.7974 233.166 59.6324 233.187 58.4642C233.187 57.9234 233.187 57.3966 233.187 56.8557C233.187 56.2254 233.187 55.5952 233.187 54.9743V17.578C233.187 16.9383 233.187 16.308 233.187 15.6966C233.187 15.1604 233.187 14.6242 233.187 14.0928C233.166 12.9246 233.059 11.7596 232.866 10.6076C232.675 9.4626 232.315 8.3529 231.799 7.31522C230.744 5.20256 229.058 3.47829 226.98 2.38611C225.942 1.8625 224.833 1.49942 223.688 1.30904C222.549 1.11835 221.397 1.01458 220.242 0.998614C219.716 0.998614 219.181 0.998614 218.655 0.998614L216.787 0.975098Z" fill="#B6B6B6"/>
<path d="M14.9499 70.0016C14.4237 70.0016 13.9115 70.0016 13.39 70.0016C12.3105 69.9874 11.2336 69.8931 10.1678 69.7194C9.17579 69.5491 8.21402 69.2321 7.31348 68.7787C5.52433 67.8524 4.06707 66.3837 3.14607 64.5786C2.69282 63.6691 2.37883 62.6954 2.21481 61.6907C2.03676 60.6117 1.9418 59.5204 1.93077 58.4266C1.93077 58.0597 1.90283 56.8369 1.90283 56.8369V15.6778C1.90283 15.6778 1.90283 14.4737 1.93077 14.1209C1.93882 13.0256 2.03224 11.9326 2.21015 10.8521C2.37205 9.84393 2.68612 8.8668 3.14141 7.95484C3.59401 7.05746 4.18674 6.23958 4.89685 5.53261C5.60606 4.81549 6.42134 4.21412 7.31348 3.75004C8.21202 3.29567 9.17239 2.97866 10.1632 2.80937C11.2317 2.63187 12.3119 2.53597 13.3946 2.52246H14.9499H218.645H220.219C221.293 2.53174 222.364 2.62609 223.423 2.80466C224.423 2.97047 225.393 3.28759 226.3 3.74533C228.094 4.6797 229.55 6.16075 230.463 7.97836C230.915 8.88339 231.229 9.85225 231.394 10.8521C231.573 11.9407 231.673 13.0411 231.692 14.1445C231.692 14.6383 231.692 15.1698 231.692 15.6966C231.692 16.3503 231.692 16.9712 231.692 17.5779V54.9226C231.692 55.5575 231.692 56.1737 231.692 56.8039C231.692 57.4342 231.692 57.8904 231.692 58.4266C231.676 59.508 231.578 60.5866 231.399 61.6531C231.24 62.6649 230.926 63.6455 230.468 64.5598C229.543 66.3581 228.089 67.8223 226.305 68.7505C225.4 69.2088 224.431 69.5259 223.432 69.6911C222.366 69.8659 221.289 69.9602 220.21 69.9733C219.707 69.9733 219.176 69.9733 218.664 69.9733H14.9499V70.0016Z" fill="black"/>
<path d="M86.8108 48.6018H78.6203L76.6321 54.1236H73.0327L81.0416 33.4946H84.4407L92.6312 54.1236H88.8642L86.8108 48.6018ZM79.6633 45.7798H85.7631L83.5793 39.8724C83.2813 39.0587 82.9833 38.1557 82.6946 37.168C82.4292 38.0428 82.1405 38.9317 81.8332 39.8442L79.6633 45.7798Z" fill="white"/>
<path d="M94.079 42.52C94.079 41.3818 94.0418 40.1275 93.9673 38.7573H97.2267C97.3492 39.4022 97.4331 40.0541 97.4782 40.7092C98.0484 40.0188 98.7599 39.4613 99.5636 39.0748C100.367 38.6884 101.244 38.4822 102.134 38.4704C103.178 38.4537 104.203 38.7518 105.078 39.3266C105.953 39.9013 106.639 40.7266 107.047 41.6969C107.62 43.0308 107.892 44.4767 107.843 45.9299C107.879 47.5144 107.56 49.0866 106.912 50.5298C106.369 51.7276 105.484 52.7335 104.37 53.4177C103.223 54.0869 101.917 54.4268 100.593 54.4007C99.5514 54.4 98.5172 54.2219 97.534 53.8739V60.2375L94.0511 60.5385L94.079 42.52ZM103.233 50.3605C103.941 49.4198 104.3 48.0088 104.3 46.1275C104.3 44.4123 104.005 43.1581 103.415 42.3648C103.148 41.9961 102.797 41.6982 102.392 41.4967C101.986 41.2952 101.539 41.196 101.087 41.2077C100.436 41.199 99.7943 41.361 99.2243 41.6781C98.6187 42.0246 98.0679 42.4605 97.5899 42.9715V51.2024C97.9758 51.3862 98.3823 51.522 98.8005 51.6069C99.2504 51.7052 99.7092 51.7556 100.17 51.7574C100.754 51.7927 101.338 51.6841 101.872 51.4407C102.406 51.1974 102.873 50.8267 103.233 50.3605Z" fill="white"/>
<path d="M109.962 42.52C109.962 41.3818 109.925 40.1275 109.851 38.7573H113.11C113.236 39.4018 113.322 40.0537 113.366 40.7092C114.723 39.2167 116.275 38.4704 118.022 38.4704C119.066 38.4537 120.091 38.7518 120.966 39.3266C121.841 39.9013 122.527 40.7266 122.935 41.6969C123.508 43.0308 123.78 44.4767 123.731 45.9299C123.774 47.5126 123.463 49.0847 122.823 50.5298C122.279 51.7282 121.392 52.7343 120.276 53.4177C119.13 54.0875 117.824 54.4275 116.5 54.4007C115.458 54.4 114.424 54.2219 113.441 53.8739V60.2375L109.958 60.5385L109.962 42.52ZM119.131 50.3605C119.838 49.3979 120.192 47.9868 120.192 46.1275C120.192 44.4123 119.899 43.1581 119.312 42.3648C119.046 41.9961 118.695 41.6982 118.289 41.4967C117.884 41.2952 117.436 41.196 116.984 41.2077C116.333 41.1998 115.692 41.3618 115.122 41.6781C114.516 42.0246 113.965 42.4605 113.487 42.9715V51.2024C113.874 51.3848 114.28 51.5205 114.698 51.6069C115.148 51.7052 115.606 51.7556 116.067 51.7574C116.651 51.7919 117.235 51.6829 117.769 51.4396C118.302 51.1963 118.77 50.8261 119.131 50.3605Z" fill="white"/>
<path d="M130.133 53.1491C128.645 52.3248 127.437 51.068 126.664 49.5416C125.82 47.8169 125.405 45.9104 125.454 43.987C125.393 41.9291 125.875 39.892 126.851 38.0842C127.731 36.5155 129.054 35.2466 130.65 34.4391C132.328 33.6111 134.175 33.1938 136.042 33.221C137.175 33.216 138.303 33.3487 139.404 33.6161C140.434 33.8609 141.433 34.2206 142.384 34.6884L141.481 37.3929C139.834 36.5536 138.022 36.0972 136.177 36.0571C134.875 36.0352 133.591 36.3596 132.452 36.9978C131.372 37.6241 130.504 38.565 129.961 39.6975C129.337 41.0407 129.034 42.5132 129.076 43.9964C129.053 45.3327 129.284 46.6611 129.756 47.9096C130.185 49.0147 130.939 49.9603 131.917 50.6187C133.031 51.3227 134.329 51.6702 135.642 51.6158C136.322 51.6141 137.001 51.5559 137.672 51.4418C138.321 51.3376 138.959 51.1706 139.576 50.9432V46.7478H134.855V44.0152H142.962V52.7117C141.785 53.2653 140.554 53.6895 139.288 53.9769C138.032 54.269 136.748 54.4173 135.46 54.419C133.606 54.464 131.772 54.0267 130.133 53.1491Z" fill="white"/>
<path d="M155.334 54.1234C155.202 53.4517 155.121 52.7709 155.091 52.0868C154.51 52.7705 153.799 53.3301 153.001 53.733C152.1 54.1941 151.101 54.4266 150.091 54.4103C149.264 54.4208 148.446 54.2424 147.697 53.8882C146.985 53.5509 146.39 53.0052 145.988 52.322C145.544 51.5477 145.323 50.6629 145.35 49.7681C145.324 49.0894 145.455 48.4139 145.732 47.7951C146.01 47.1762 146.426 46.6311 146.948 46.2029C148.009 45.3124 149.78 44.8688 152.26 44.8719C153.184 44.8715 154.107 44.9375 155.022 45.0694V44.7684C155.022 43.4139 154.736 42.4575 154.165 41.8994C153.482 41.3059 152.596 41.0069 151.697 41.0669C150.892 41.0768 150.091 41.1874 149.313 41.3961C148.542 41.5839 147.791 41.8453 147.069 42.1769L146.519 39.6182C147.309 39.2778 148.129 39.0148 148.968 38.8328C150.024 38.5916 151.104 38.4717 152.186 38.4753C153.333 38.4437 154.474 38.6502 155.538 39.0821C156.475 39.5003 157.237 40.2355 157.694 41.1609C158.266 42.4001 158.533 43.7603 158.472 45.1259V51.2402C158.472 51.8674 158.509 52.83 158.584 54.1281L155.334 54.1234ZM153.248 51.3014C153.919 50.9863 154.522 50.5404 155.022 49.9892V47.1671C154.249 47.0748 153.472 47.023 152.693 47.0119C151.256 47.0119 150.261 47.2471 149.709 47.7174C149.439 47.9474 149.225 48.2363 149.082 48.5622C148.939 48.8882 148.872 49.2426 148.885 49.5988C148.859 49.9065 148.9 50.2162 149.004 50.5067C149.107 50.7972 149.272 51.0618 149.485 51.2826C149.939 51.6692 150.522 51.8661 151.115 51.8329C151.857 51.8216 152.586 51.6398 153.248 51.3014Z" fill="white"/>
<path d="M161.163 50.4357V32.2807L164.627 31.9985V49.8102C164.578 50.3046 164.695 50.8015 164.958 51.2212C165.091 51.3657 165.255 51.4777 165.437 51.5486C165.62 51.6195 165.816 51.6474 166.01 51.6304C166.326 51.6165 166.639 51.5628 166.942 51.4704L167.351 53.9914C166.961 54.1401 166.557 54.2473 166.145 54.3113C165.701 54.3891 165.251 54.43 164.8 54.4336C162.375 54.4179 161.163 53.0853 161.163 50.4357Z" fill="white"/>
<path d="M169.829 50.4357V32.2807L173.298 31.9985V49.8102C173.248 50.3046 173.365 50.8015 173.628 51.2212C173.761 51.3657 173.925 51.4777 174.108 51.5486C174.29 51.6195 174.486 51.6474 174.68 51.6304C174.996 51.6165 175.309 51.5628 175.612 51.4704L176.017 53.9914C175.629 54.1402 175.226 54.2474 174.816 54.3113C174.369 54.3894 173.918 54.4303 173.465 54.4336C171.044 54.4179 169.832 53.0853 169.829 50.4357Z" fill="white"/>
<path d="M190.265 46.8893H180.315C180.473 50.1095 181.991 51.7196 184.869 51.7196C185.607 51.7158 186.343 51.6274 187.062 51.4562C187.796 51.2837 188.514 51.0476 189.208 50.7507L189.972 53.1588C188.179 54.0123 186.217 54.4402 184.235 54.4099C182.816 54.4513 181.409 54.1276 180.147 53.4693C179.054 52.8725 178.177 51.9403 177.642 50.8072C177.051 49.4944 176.764 48.0628 176.804 46.6212C176.765 45.1106 177.07 43.6111 177.693 42.2377C178.225 41.0721 179.085 40.0906 180.166 39.4156C181.273 38.7567 182.54 38.4212 183.826 38.4467C185.101 38.4012 186.359 38.7579 187.425 39.4674C188.386 40.1412 189.131 41.0847 189.567 42.1812C190.046 43.3756 190.284 44.6551 190.265 45.9439V46.8893ZM186.871 44.6552C186.878 43.6566 186.549 42.6851 185.94 41.899C185.666 41.5899 185.329 41.3453 184.952 41.1827C184.574 41.0201 184.166 40.9435 183.756 40.9583C183.343 40.9497 182.933 41.0291 182.553 41.1912C182.173 41.3532 181.831 41.5944 181.549 41.899C180.892 42.6717 180.49 43.6317 180.399 44.6458L186.871 44.6552Z" fill="white"/>
<path d="M192.901 42.6192C192.901 41.7773 192.859 40.4886 192.784 38.7625H196.044C196.099 39.1905 196.151 39.7031 196.207 40.2911C196.262 40.879 196.29 41.3681 196.309 41.7397C196.66 41.1402 197.058 40.5708 197.501 40.0371C197.885 39.5809 198.349 39.1999 198.87 38.913C199.417 38.6146 200.032 38.4639 200.653 38.4756C201.125 38.4639 201.596 38.5226 202.05 38.6496L201.613 41.6974C201.067 41.5379 200.495 41.4974 199.933 41.5785C199.371 41.6596 198.832 41.8604 198.353 42.1677C197.582 42.7463 196.911 43.4486 196.365 44.2466V54.1236H192.901V42.6192Z" fill="white"/>
<path d="M203.987 60.4113C203.562 60.3419 203.144 60.2397 202.734 60.1055L203.368 57.5422C203.661 57.6219 203.957 57.6862 204.257 57.7351C204.592 57.7952 204.932 57.8267 205.272 57.8291C206.824 57.8291 207.979 56.8273 208.736 54.8237L208.965 54.2546L203.354 38.7617H207.079L209.928 47.4206C210.293 48.5344 210.589 49.6701 210.813 50.8211C211.079 49.7111 211.386 48.6011 211.744 47.4911L214.585 38.7617H218.091L212.503 54.3251C212.082 55.5787 211.508 56.7747 210.794 57.8856C210.251 58.7247 209.508 59.4134 208.634 59.8892C207.697 60.3513 206.663 60.5772 205.621 60.5477C205.074 60.5498 204.527 60.5042 203.987 60.4113Z" fill="white"/>
<path d="M73.0327 13.8525H79.2256L79.0533 15.367H74.8394V18.2972H78.8112V19.7082H74.8394V22.9535H79.2768L79.1232 24.4915H73.0327V13.8525Z" fill="white"/>
<path d="M83.5049 19.0639L80.2455 13.8525H82.3129L84.5293 17.6811L86.8574 13.8525H88.8643L85.6049 18.998L89.1297 24.4915H87.0344L84.5246 20.3055L81.9683 24.4915H79.9614L83.5049 19.0639Z" fill="white"/>
<path d="M90.4663 13.8525H93.3067C94.6384 13.8525 95.6597 14.1269 96.3705 14.6756C96.7241 14.9567 97.0053 15.3198 97.1901 15.7341C97.375 16.1485 97.458 16.6018 97.4322 17.0555C97.4519 17.7036 97.2905 18.3442 96.9665 18.9039C96.6504 19.4302 96.1892 19.8519 95.6395 20.1174C95.0287 20.4091 94.3593 20.554 93.6838 20.5407C93.2148 20.534 92.7474 20.4852 92.2869 20.3949V24.4915H90.4663V13.8525ZM95.0295 18.6029C95.2282 18.4102 95.3831 18.1763 95.4835 17.9173C95.584 17.6582 95.6277 17.3803 95.6115 17.1026C95.6352 16.8364 95.5937 16.5684 95.4906 16.3224C95.3874 16.0763 95.2259 15.8596 95.0202 15.6916C94.4961 15.3692 93.8863 15.2181 93.2741 15.2588H92.2869V19.0215C92.6329 19.0845 92.9832 19.1207 93.3346 19.1297C93.9451 19.176 94.5504 18.9879 95.0295 18.6029Z" fill="white"/>
<path d="M99.229 13.8525H101.045V22.9206H105.403L105.25 24.4915H99.229V13.8525Z" fill="white"/>
<path d="M108.169 23.9696C107.406 23.5358 106.789 22.8804 106.4 22.0882C105.976 21.2103 105.767 20.2426 105.79 19.2662C105.767 18.2459 105.991 17.2355 106.442 16.3219C106.855 15.4985 107.504 14.8199 108.304 14.3747C109.2 13.9006 110.203 13.6704 111.214 13.7069C112.17 13.6809 113.116 13.9097 113.957 14.37C114.716 14.8053 115.327 15.4608 115.712 16.2514C116.128 17.1202 116.333 18.0759 116.313 19.0405C116.338 20.0722 116.113 21.0944 115.657 22.0177C115.24 22.8383 114.592 23.5158 113.794 23.9649C112.914 24.438 111.927 24.6745 110.93 24.6516C109.966 24.6762 109.013 24.4408 108.169 23.9696ZM112.881 22.6668C113.395 22.3232 113.794 21.8315 114.027 21.2558C114.288 20.5966 114.416 19.8914 114.404 19.1816C114.416 18.4847 114.302 17.7915 114.069 17.1356C113.86 16.5675 113.487 16.0759 112.998 15.7246C112.431 15.3742 111.779 15.1887 111.114 15.1887C110.45 15.1887 109.798 15.3742 109.231 15.7246C108.716 16.0853 108.315 16.5883 108.076 17.1732C107.811 17.8052 107.679 18.486 107.69 19.1722C107.678 19.8791 107.802 20.5817 108.053 21.2416C108.276 21.8454 108.684 22.3617 109.217 22.7152C109.75 23.0688 110.382 23.2413 111.019 23.2076C111.68 23.2241 112.33 23.0353 112.881 22.6668Z" fill="white"/>
<path d="M118.338 13.8528H121.635C122.601 13.7838 123.562 14.0402 124.368 14.5819C124.678 14.8272 124.924 15.1442 125.086 15.5061C125.248 15.868 125.321 16.2641 125.3 16.6607C125.311 17.1765 125.195 17.687 124.964 18.147C124.762 18.5504 124.48 18.9074 124.136 19.1959C123.827 19.4471 123.482 19.6472 123.111 19.7885L126.371 24.4918H124.252L121.509 20.2588H120.173V24.4918H118.338V13.8528ZM121.193 18.8854C121.597 18.8943 121.998 18.8057 122.361 18.6267C122.689 18.4679 122.965 18.2183 123.158 17.9071C123.35 17.575 123.448 17.1959 123.442 16.8112C123.46 16.5892 123.424 16.366 123.337 16.1616C123.249 15.9572 123.112 15.778 122.939 15.6401C122.502 15.3641 121.991 15.234 121.477 15.2685H120.159V18.9042L121.193 18.8854Z" fill="white"/>
<path d="M127.791 13.8525H133.998L133.821 15.367H129.63V18.2972H133.565V19.7082H129.593V22.9535H134.03L133.895 24.4915H127.791V13.8525Z" fill="white"/>
<path d="M140.75 13.8525H142.566V24.4915H140.75V13.8525Z" fill="white"/>
<path d="M147.376 15.3858H144.116L144.275 13.8525H152.47L152.302 15.3858H149.196V24.4915H147.376V15.3858Z" fill="white"/>
<path d="M160.362 23.97C159.6 23.536 158.985 22.8805 158.597 22.0887C158.17 21.2119 157.959 20.2437 157.983 19.2667C157.96 18.2464 158.184 17.2359 158.635 16.3224C159.049 15.4998 159.698 14.8215 160.497 14.3752C161.386 13.8987 162.382 13.6622 163.389 13.6885C164.356 13.6622 165.312 13.8977 166.159 14.3705C166.919 14.8044 167.531 15.4602 167.915 16.2518C168.332 17.1203 168.539 18.076 168.52 19.0409C168.546 20.0732 168.319 21.096 167.859 22.0182C167.443 22.8397 166.795 23.5176 165.996 23.9653C165.116 24.4397 164.13 24.6762 163.133 24.652C162.165 24.6783 161.209 24.4429 160.362 23.97ZM165.079 22.6672C165.59 22.3221 165.987 21.8308 166.22 21.2562C166.481 20.5971 166.609 19.8919 166.597 19.182C166.609 18.4852 166.495 17.792 166.262 17.1361C166.054 16.5683 165.683 16.0767 165.195 15.7251C164.628 15.3742 163.975 15.1886 163.31 15.1886C162.644 15.1886 161.991 15.3742 161.424 15.7251C160.909 16.0858 160.508 16.5888 160.269 17.1737C160.006 17.8063 159.875 18.4866 159.883 19.1726C159.871 19.8796 159.995 20.5821 160.246 21.2421C160.468 21.8223 160.855 22.3231 161.359 22.6813C161.91 23.0489 162.561 23.233 163.221 23.2081C163.88 23.2218 164.528 23.0332 165.079 22.6672Z" fill="white"/>
<path d="M170.537 13.8525H172.623L177.833 22.0975C177.787 21.3121 177.768 20.5925 177.768 19.9293V13.8525H179.453V24.4915H177.433L172.143 16.1149C172.194 17.0555 172.222 17.9068 172.222 18.6453V24.4915H170.537V13.8525Z" fill="white"/>
<path fill-rule="evenodd" clip-rule="evenodd" d="M47.4227 13.9097H28.0943C18.9819 13.9097 15.6479 17.2773 15.6479 26.4817V46.0195C15.6479 55.224 18.9819 58.5916 28.0943 58.5916H47.4227C56.5351 58.5916 59.8737 55.224 59.8737 46.0195V26.4817C59.883 17.2773 56.5491 13.9097 47.4227 13.9097Z" fill="#C8102E"/>
<path d="M24.4073 36.2505H25.5807V42.0968H24.4073V39.7216H21.7579V42.0968H20.5845V36.2505H21.7579V38.6022H24.4073V36.2505ZM31.0193 39.5946C31.0193 40.5352 30.5537 41.0526 29.7062 41.0526C28.8588 41.0526 28.3838 40.5352 28.3838 39.5428V36.2505H27.2104V39.5899C27.2104 41.2313 28.1137 42.172 29.6876 42.172C31.2614 42.172 32.1927 41.2313 32.1927 39.5381V36.2505H31.0193V39.5946ZM44.5785 40.2672L43.2654 36.2505H42.3016L40.9978 40.2719L39.7173 36.2505H38.4694L40.4856 42.0968H41.4588L42.7672 38.2588L44.0803 42.0968H45.0628L47.079 36.2505H45.859L44.5785 40.2672ZM49.179 39.5758H51.3162V38.5175H49.179V37.3229H52.2801V36.2505H48.0242V42.0827H52.3918V41.0291H49.179V39.5758ZM53.7887 42.0827H54.9481V36.2505H53.7887V42.0827ZM34.5115 40.8739L33.9854 42.0874H32.7887L35.3171 36.2505H36.3508L38.8885 42.0874H37.6778L37.1796 40.8786L34.5115 40.8739ZM34.9492 39.8203H36.714L35.8293 37.732L34.9492 39.8203Z" fill="white"/>
<path d="M37.7655 28.8139C35.8134 28.8127 33.9417 28.0289 32.5613 26.6346C31.181 25.2404 30.405 23.3497 30.4038 21.3779H31.4422C31.4422 23.0719 32.1084 24.6965 33.2942 25.8943C34.4801 27.0922 36.0884 27.7651 37.7655 27.7651C39.4425 27.7651 41.0509 27.0922 42.2367 25.8943C43.4225 24.6965 44.0887 23.0719 44.0887 21.3779H45.1271C45.1259 23.3497 44.3499 25.2404 42.9696 26.6346C41.5893 28.0289 39.7175 28.8127 37.7655 28.8139Z" fill="white"/>
</g>
<defs>
<clipPath id="clip0_1282_36625">
<rect width="232.816" height="70.5504" fill="white" transform="translate(0.394043 0.975098)"/>
</clipPath>
</defs>
</svg>
