<svg width="209" height="72" viewBox="0 0 209 72" fill="none" xmlns="http://www.w3.org/2000/svg">
<g clip-path="url(#clip0_1282_36624)">
<path d="M191.82 0.975327H16.8535C16.2158 0.975327 15.5856 0.975327 14.9495 0.978854C14.4171 0.982382 13.8889 0.992629 13.3513 1.00125C12.1834 1.01519 11.0183 1.11938 9.86602 1.31293C8.71539 1.51069 7.6008 1.88351 6.55995 2.41881C5.52038 2.95862 4.57049 3.66006 3.74475 4.49768C2.91467 5.33294 2.22273 6.29838 1.69555 7.35689C1.16691 8.41329 0.800348 9.54533 0.608528 10.7139C0.414883 11.881 0.310681 13.0615 0.296857 14.2449C0.280717 14.7857 0.279013 15.3283 0.270508 15.8691V56.6371C0.279013 57.1847 0.280717 57.7153 0.296857 58.2631C0.310686 59.4465 0.414887 60.6269 0.608528 61.794C0.799819 62.9632 1.1664 64.0959 1.69555 65.1527C2.22249 66.2078 2.91452 67.1693 3.74475 67.9999C4.56736 68.8413 5.51786 69.5432 6.55995 70.0789C7.60079 70.6156 8.71526 70.9907 9.86602 71.1915C11.0185 71.3835 12.1835 71.4877 13.3513 71.5033C13.8889 71.5153 14.4171 71.5222 14.9495 71.5222C15.5856 71.5257 16.2158 71.5257 16.8535 71.5257H191.82C192.446 71.5257 193.081 71.5257 193.706 71.5222C194.236 71.5222 194.779 71.5153 195.309 71.5033C196.475 71.4885 197.638 71.3843 198.788 71.1915C199.942 70.9892 201.061 70.6143 202.106 70.0789C203.148 69.5429 204.097 68.841 204.919 67.9999C205.747 67.1661 206.441 66.2052 206.974 65.1527C207.499 64.0951 207.862 62.9625 208.051 61.794C208.245 60.6268 208.353 59.4466 208.374 58.2631C208.381 57.7153 208.381 57.1847 208.381 56.6371C208.394 55.9963 208.394 55.3591 208.394 54.7079V17.7948C208.394 17.1489 208.394 16.5081 208.381 15.8691C208.381 15.3283 208.381 14.7857 208.374 14.2449C208.353 13.0614 208.245 11.8811 208.051 10.7138C207.862 9.54593 207.499 8.41399 206.974 7.35682C205.901 5.23515 204.198 3.50813 202.106 2.41865C201.061 1.88466 199.942 1.51193 198.788 1.31277C197.638 1.11837 196.475 1.01414 195.309 1.00101C194.779 0.9924 194.236 0.982065 193.706 0.978625C193.081 0.975098 192.446 0.975098 191.82 0.975098V0.975327Z" fill="#A6A6A6"/>
<path d="M14.958 69.9823C14.4281 69.9823 13.911 69.9755 13.3852 69.9635C12.2961 69.9491 11.2095 69.8529 10.1343 69.6758C9.13182 69.5007 8.16066 69.175 7.25288 68.7094C6.35342 68.2477 5.53304 67.6423 4.82317 66.9164C4.10302 66.199 3.50347 65.367 3.04827 64.4533C2.58805 63.5337 2.26955 62.5479 2.10386 61.5304C1.92494 60.4371 1.82813 59.3316 1.81428 58.2234C1.80325 57.8514 1.78882 56.6129 1.78882 56.6129V15.869C1.78882 15.869 1.80419 14.6496 1.81437 14.2913C1.82763 13.1849 1.92387 12.081 2.10226 10.9894C2.26825 9.96911 2.587 8.98053 3.04747 8.05787C3.501 7.1448 4.09722 6.31215 4.81303 5.59222C5.52803 4.86545 6.35104 4.25692 7.25203 3.78883C8.15772 3.32476 9.12705 3.00135 10.1275 2.82945C11.2062 2.65055 12.2966 2.55382 13.3895 2.54009L14.9588 2.51855H193.697L195.285 2.54095C196.368 2.554 197.449 2.64987 198.517 2.82772C199.528 3.00178 200.508 3.32744 201.424 3.794C203.229 4.73734 204.697 6.22979 205.624 8.06217C206.077 8.97846 206.391 9.95898 206.555 10.9705C206.735 12.0711 206.836 13.1835 206.857 14.2991C206.862 14.7986 206.862 15.3351 206.862 15.869C206.876 16.5305 206.876 17.16 206.876 17.7947V54.7078C206.876 55.3486 206.876 55.9739 206.862 56.6042C206.862 57.1778 206.862 57.7032 206.855 58.244C206.835 59.3396 206.736 60.4322 206.558 61.5131C206.396 62.538 206.079 63.5314 205.619 64.4586C205.16 65.3624 204.564 66.1872 203.852 66.9026C203.142 67.6325 202.32 68.2414 201.419 68.7061C200.505 69.1752 199.527 69.5021 198.517 69.6758C197.442 69.8539 196.356 69.95 195.266 69.9635C194.757 69.9755 194.224 69.9823 193.706 69.9823L191.82 69.9859L14.958 69.9823Z" fill="black"/>
<path d="M43.3492 36.7806C43.3679 35.3085 43.7535 33.865 44.4701 32.5846C45.1868 31.3042 46.2111 30.2284 47.4478 29.4574C46.6622 28.3195 45.6257 27.383 44.4207 26.7224C43.2157 26.0618 41.8754 25.6952 40.5063 25.6517C37.5857 25.3409 34.7543 27.424 33.266 27.424C31.749 27.424 29.4575 25.6826 26.99 25.7341C25.394 25.7864 23.8385 26.2571 22.4752 27.1002C21.1118 27.9434 19.9871 29.1304 19.2106 30.5454C15.8469 36.4512 18.3559 45.1308 21.578 49.9046C23.1901 52.2422 25.0742 54.8533 27.5395 54.7607C29.9519 54.6593 30.8529 53.2007 33.7649 53.2007C36.6498 53.2007 37.4952 54.7607 40.0105 54.7018C42.5991 54.6592 44.2301 52.3539 45.7856 49.9941C46.9439 48.3285 47.8352 46.4876 48.4265 44.5397C46.9226 43.8946 45.6391 42.8149 44.7363 41.4351C43.8334 40.0553 43.351 38.4365 43.3492 36.7806Z" fill="white"/>
<path d="M38.5979 22.5121C40.0094 20.7938 40.7047 18.5853 40.5363 16.3555C38.38 16.5851 36.3881 17.6303 34.9576 19.2826C34.2582 20.0898 33.7225 21.0289 33.3812 22.0462C33.0399 23.0635 32.8996 24.139 32.9684 25.2113C34.047 25.2226 35.114 24.9855 36.0892 24.5179C37.0643 24.0504 37.9221 23.3646 38.5979 22.5121Z" fill="white"/>
<path d="M73.8442 48.8427H65.6117L63.6347 54.7627H60.1477L67.9454 32.8604H71.5682L79.3659 54.7627H75.8195L73.8442 48.8427ZM66.4643 46.111H72.9899L69.773 36.5033H69.683L66.4643 46.111Z" fill="white"/>
<path d="M96.2058 46.7797C96.2058 51.742 93.5868 54.9302 89.6345 54.9302C88.6333 54.9833 87.6375 54.7494 86.7613 54.2553C85.8851 53.7612 85.1638 53.0269 84.68 52.1364H84.6052V60.0458H81.373V38.7945H84.5017V41.4505H84.5611C85.0672 40.5643 85.8006 39.8338 86.6835 39.3366C87.5664 38.8395 88.5657 38.5944 89.575 38.6275C93.5714 38.6275 96.2058 41.8312 96.2058 46.7797ZM92.8836 46.7797C92.8836 43.5467 91.2361 41.4212 88.7224 41.4212C86.2528 41.4212 84.5917 43.5915 84.5917 46.7797C84.5917 49.9972 86.2528 52.1519 88.7224 52.1519C91.2361 52.1519 92.8836 50.042 92.8836 46.7797Z" fill="white"/>
<path d="M113.538 46.7797C113.538 51.742 110.919 54.9302 106.966 54.9302C105.965 54.9833 104.97 54.7494 104.093 54.2553C103.217 53.7612 102.496 53.0269 102.012 52.1364H101.937V60.0457H98.7051V38.7945H101.834V41.4505H101.893C102.399 40.5643 103.133 39.8337 104.016 39.3366C104.898 38.8395 105.898 38.5944 106.907 38.6275C110.904 38.6275 113.538 41.8311 113.538 46.7797ZM110.216 46.7797C110.216 43.5467 108.568 41.4212 106.054 41.4212C103.585 41.4212 101.924 43.5915 101.924 46.7797C101.924 49.9972 103.585 52.1519 106.054 52.1519C108.568 52.1519 110.216 50.0419 110.216 46.7797H110.216Z" fill="white"/>
<path d="M124.992 48.6606C125.231 50.8326 127.312 52.2587 130.155 52.2587C132.879 52.2587 134.839 50.8325 134.839 48.8741C134.839 47.1741 133.657 46.1562 130.858 45.4586L128.059 44.7748C124.093 43.8033 122.252 41.9224 122.252 38.8703C122.252 35.0913 125.5 32.4956 130.111 32.4956C134.675 32.4956 137.803 35.0913 137.909 38.8703H134.646C134.451 36.6845 132.669 35.3652 130.065 35.3652C127.461 35.3652 125.68 36.7001 125.68 38.6429C125.68 40.1914 126.818 41.1026 129.601 41.8001L131.981 42.3926C136.412 43.4553 138.253 45.2605 138.253 48.4641C138.253 52.5618 135.035 55.1282 129.916 55.1282C125.126 55.1282 121.892 52.622 121.683 48.6605L124.992 48.6606Z" fill="white"/>
<path d="M145.228 35.0151V38.7941H148.223V41.3898H145.228V50.1931C145.228 51.5607 145.828 52.198 147.144 52.198C147.5 52.1917 147.855 52.1664 148.208 52.1222V54.7024C147.616 54.8145 147.014 54.8653 146.412 54.8539C143.224 54.8539 141.981 53.6396 141.981 50.5427V41.3898H139.691V38.7941H141.981V35.0151H145.228Z" fill="white"/>
<path d="M149.957 46.7796C149.957 41.7553 152.875 38.5981 157.425 38.5981C161.991 38.5981 164.895 41.7553 164.895 46.7796C164.895 51.8177 162.006 54.9611 157.425 54.9611C152.846 54.9611 149.957 51.8177 149.957 46.7796ZM161.602 46.7796C161.602 43.3331 160.044 41.2989 157.425 41.2989C154.806 41.2989 153.25 43.3486 153.25 46.7796C153.25 50.24 154.806 52.2587 157.425 52.2587C160.044 52.2587 161.602 50.24 161.602 46.7796H161.602Z" fill="white"/>
<path d="M167.561 38.7944H170.643V41.5123H170.718C170.927 40.6635 171.417 39.9133 172.107 39.3879C172.797 38.8625 173.644 38.5939 174.506 38.6273C174.878 38.626 175.25 38.667 175.613 38.7496V41.8155C175.143 41.6698 174.652 41.6029 174.161 41.6174C173.691 41.5981 173.223 41.6821 172.789 41.8635C172.354 42.045 171.963 42.3197 171.643 42.6687C171.323 43.0177 171.082 43.4329 170.935 43.8856C170.788 44.3383 170.74 44.8178 170.793 45.2913V54.7629H167.561L167.561 38.7944Z" fill="white"/>
<path d="M190.515 50.0729C190.081 52.9717 187.297 54.9611 183.735 54.9611C179.154 54.9611 176.311 51.8487 176.311 46.8554C176.311 41.8466 179.17 38.5981 183.599 38.5981C187.956 38.5981 190.695 41.633 190.695 46.4748V47.5978H179.574V47.7959C179.522 48.3836 179.595 48.9756 179.787 49.5327C179.978 50.0897 180.285 50.5991 180.685 51.0269C181.086 51.4547 181.572 51.7911 182.11 52.0139C182.649 52.2367 183.228 52.3406 183.81 52.3189C184.574 52.3915 185.34 52.2121 185.995 51.8074C186.65 51.4028 187.159 50.7944 187.446 50.0729L190.515 50.0729ZM179.589 45.307H187.461C187.49 44.7786 187.411 44.2498 187.229 43.7538C187.047 43.2578 186.766 42.8053 186.404 42.4248C186.041 42.0442 185.605 41.7438 185.122 41.5423C184.639 41.3409 184.121 41.2427 183.599 41.2541C183.073 41.2509 182.551 41.3535 182.064 41.5559C181.577 41.7582 181.134 42.0564 180.761 42.4332C180.389 42.81 180.093 43.258 179.892 43.7512C179.691 44.2444 179.588 44.7732 179.589 45.307V45.307Z" fill="white"/>
<path d="M66.0586 16.3742C66.7362 16.3249 67.4162 16.4287 68.0494 16.6782C68.6827 16.9277 69.2535 17.3165 69.7207 17.8168C70.1878 18.317 70.5396 18.9162 70.7508 19.571C70.9619 20.2258 71.0271 20.92 70.9417 21.6035C70.9417 24.9657 69.1498 26.8983 66.0586 26.8983H62.3101V16.3742H66.0586ZM63.9219 25.41H65.8785C66.3627 25.4393 66.8473 25.3588 67.297 25.1743C67.7466 24.9898 68.1501 24.7059 68.4779 24.3434C68.8057 23.9808 69.0497 23.5486 69.1921 23.0784C69.3345 22.6081 69.3716 22.1116 69.3009 21.625C69.3665 21.1402 69.3256 20.6468 69.181 20.18C69.0364 19.7132 68.7919 19.2846 68.4648 18.9249C68.1377 18.5652 67.7362 18.2833 67.2891 18.0995C66.8419 17.9156 66.3603 17.8344 65.8785 17.8615H63.9219V25.41Z" fill="white"/>
<path d="M72.7628 22.924C72.7136 22.4021 72.7725 21.8755 72.9357 21.378C73.0989 20.8805 73.3628 20.4231 73.7106 20.0351C74.0583 19.6471 74.4822 19.3371 74.955 19.1249C75.4278 18.9128 75.9391 18.8032 76.4562 18.8032C76.9732 18.8032 77.4845 18.9128 77.9573 19.1249C78.4301 19.3371 78.854 19.6471 79.2017 20.0351C79.5495 20.4231 79.8134 20.8805 79.9766 21.378C80.1398 21.8755 80.1987 22.4021 80.1495 22.924C80.1996 23.4465 80.1415 23.9738 79.9787 24.4721C79.8159 24.9704 79.5521 25.4287 79.2043 25.8175C78.8565 26.2062 78.4323 26.5169 77.959 26.7295C77.4857 26.9421 76.9738 27.0519 76.4562 27.0519C75.9385 27.0519 75.4266 26.9421 74.9533 26.7295C74.48 26.5169 74.0558 26.2062 73.708 25.8175C73.3602 25.4287 73.0964 24.9704 72.9336 24.4721C72.7708 23.9738 72.7127 23.4465 72.7628 22.924ZM78.5597 22.924C78.5597 21.2025 77.7971 20.1957 76.4587 20.1957C75.1152 20.1957 74.3594 21.2025 74.3594 22.924C74.3594 24.6594 75.1153 25.6584 76.4587 25.6584C77.7971 25.6584 78.5597 24.6525 78.5597 22.924H78.5597Z" fill="white"/>
<path d="M89.9683 26.8986H88.365L86.7463 21.0493H86.6241L85.0122 26.8986H83.4241L81.2654 18.9565H82.8331L84.236 25.0168H84.3515L85.9617 18.9565H87.4444L89.0546 25.0168H89.1769L90.573 18.9565H92.1186L89.9683 26.8986Z" fill="white"/>
<path d="M93.9336 18.9565H95.4215V20.2182H95.537C95.7329 19.7651 96.0633 19.3852 96.4823 19.1316C96.9012 18.8779 97.3877 18.7631 97.8741 18.8032C98.2551 18.7742 98.6377 18.8324 98.9936 18.9737C99.3494 19.115 99.6694 19.3356 99.9297 19.6193C100.19 19.903 100.384 20.2425 100.497 20.6125C100.611 20.9826 100.641 21.3738 100.585 21.7572V26.8985H99.0392V22.1508C99.0392 20.8745 98.4923 20.2397 97.3492 20.2397C97.0905 20.2275 96.8322 20.2722 96.5921 20.3706C96.352 20.4691 96.1357 20.6191 95.9581 20.8102C95.7805 21.0014 95.6457 21.2293 95.5631 21.4782C95.4804 21.7271 95.4518 21.9912 95.4792 22.2524V26.8986H93.9336L93.9336 18.9565Z" fill="white"/>
<path d="M103.048 15.856H104.593V26.8984H103.048V15.856Z" fill="white"/>
<path d="M106.742 22.9242C106.693 22.4022 106.752 21.8756 106.915 21.3781C107.078 20.8805 107.342 20.4231 107.69 20.0351C108.038 19.6471 108.462 19.3371 108.935 19.1249C109.407 18.9128 109.919 18.8032 110.436 18.8032C110.953 18.8032 111.464 18.9128 111.937 19.1249C112.41 19.3371 112.834 19.6471 113.182 20.0351C113.529 20.4231 113.793 20.8805 113.957 21.3781C114.12 21.8756 114.179 22.4022 114.13 22.9242C114.18 23.4467 114.121 23.974 113.959 24.4723C113.796 24.9706 113.532 25.4289 113.184 25.8176C112.836 26.2063 112.412 26.517 111.939 26.7296C111.465 26.9422 110.953 27.052 110.436 27.052C109.918 27.052 109.406 26.9422 108.933 26.7296C108.46 26.517 108.035 26.2063 107.688 25.8176C107.34 25.4289 107.076 24.9706 106.913 24.4723C106.75 23.974 106.692 23.4467 106.742 22.9242ZM112.539 22.9242C112.539 21.2026 111.776 20.1959 110.438 20.1959C109.094 20.1959 108.339 21.2026 108.339 22.9242C108.339 24.6595 109.094 25.6585 110.438 25.6585C111.776 25.6585 112.539 24.6526 112.539 22.9242H112.539Z" fill="white"/>
<path d="M115.757 24.6526C115.757 23.2229 116.806 22.3988 118.67 22.2816L120.791 22.1576V21.4721C120.791 20.6333 120.244 20.1596 119.188 20.1596C118.325 20.1596 117.727 20.4809 117.556 21.0424H116.059C116.217 19.6782 117.482 18.8032 119.259 18.8032C121.223 18.8032 122.33 19.7945 122.33 21.4721V26.8986H120.842V25.7825H120.72C120.472 26.1828 120.123 26.5092 119.71 26.7283C119.296 26.9474 118.833 27.0513 118.367 27.0294C118.039 27.0641 117.706 27.0286 117.392 26.925C117.078 26.8215 116.788 26.6523 116.542 26.4284C116.296 26.2044 116.099 25.9307 115.964 25.6248C115.829 25.319 115.758 24.9878 115.757 24.6526ZM120.791 23.9739V23.3099L118.879 23.4339C117.8 23.5071 117.311 23.8792 117.311 24.5793C117.311 25.2941 117.922 25.7101 118.763 25.7101C119.01 25.7354 119.258 25.7102 119.495 25.6359C119.731 25.5617 119.951 25.44 120.14 25.278C120.329 25.116 120.484 24.9171 120.596 24.693C120.708 24.469 120.774 24.2244 120.791 23.9739Z" fill="white"/>
<path d="M124.361 22.9239C124.361 20.4144 125.633 18.8246 127.612 18.8246C128.102 18.8017 128.587 18.9206 129.013 19.1673C129.438 19.4141 129.785 19.7785 130.014 20.2179H130.129V15.856H131.675V26.8984H130.194V25.6436H130.072C129.825 26.0801 129.466 26.44 129.032 26.6842C128.599 26.9285 128.108 27.0478 127.612 27.0293C125.62 27.0294 124.361 25.4395 124.361 22.9239ZM125.958 22.9239C125.958 24.6085 126.741 25.6221 128.05 25.6221C129.353 25.6221 130.158 24.5938 130.158 22.9308C130.158 21.2756 129.345 20.2327 128.05 20.2327C126.749 20.2327 125.958 21.2532 125.958 22.9239H125.958Z" fill="white"/>
<path d="M138.069 22.924C138.02 22.4021 138.079 21.8755 138.242 21.378C138.405 20.8805 138.669 20.4231 139.017 20.0351C139.365 19.6471 139.789 19.3371 140.261 19.1249C140.734 18.9128 141.246 18.8032 141.763 18.8032C142.28 18.8032 142.791 18.9128 143.264 19.1249C143.736 19.3371 144.16 19.6471 144.508 20.0351C144.856 20.4231 145.12 20.8805 145.283 21.378C145.446 21.8755 145.505 22.4021 145.456 22.924C145.506 23.4465 145.448 23.9738 145.285 24.4721C145.122 24.9704 144.859 25.4287 144.511 25.8175C144.163 26.2062 143.739 26.5169 143.265 26.7295C142.792 26.9421 142.28 27.0519 141.763 27.0519C141.245 27.0519 140.733 26.9421 140.26 26.7295C139.786 26.5169 139.362 26.2062 139.014 25.8175C138.667 25.4287 138.403 24.9704 138.24 24.4721C138.077 23.9738 138.019 23.4465 138.069 22.924ZM143.866 22.924C143.866 21.2025 143.103 20.1957 141.765 20.1957C140.422 20.1957 139.666 21.2025 139.666 22.924C139.666 24.6594 140.422 25.6584 141.765 25.6584C143.103 25.6584 143.866 24.6525 143.866 22.924Z" fill="white"/>
<path d="M147.53 18.9565H149.018V20.2182H149.134C149.33 19.7651 149.66 19.3852 150.079 19.1316C150.498 18.8779 150.984 18.7631 151.471 18.8032C151.852 18.7742 152.234 18.8324 152.59 18.9737C152.946 19.115 153.266 19.3356 153.526 19.6193C153.787 19.903 153.981 20.2425 154.094 20.6125C154.208 20.9826 154.237 21.3738 154.181 21.7572V26.8985H152.636V22.1508C152.636 20.8745 152.089 20.2397 150.946 20.2397C150.687 20.2275 150.429 20.2722 150.189 20.3706C149.949 20.4691 149.732 20.6191 149.555 20.8102C149.377 21.0014 149.242 21.2293 149.16 21.4782C149.077 21.7271 149.048 21.9912 149.076 22.2524V26.8986H147.53V18.9565Z" fill="white"/>
<path d="M162.915 16.979V18.9925H164.611V20.3128H162.915V24.3966C162.915 25.2285 163.253 25.5928 164.022 25.5928C164.219 25.5922 164.416 25.5801 164.611 25.5567V26.8622C164.334 26.9126 164.053 26.9394 163.771 26.9423C162.052 26.9423 161.367 26.3292 161.367 24.7979V20.3127H160.124V18.9924H161.367V16.979H162.915Z" fill="white"/>
<path d="M166.723 15.856H168.255V20.2326H168.377C168.582 19.7753 168.922 19.3932 169.349 19.1386C169.777 18.8841 170.271 18.7693 170.765 18.8099C171.144 18.789 171.523 18.8532 171.875 18.9979C172.227 19.1426 172.543 19.3642 172.8 19.647C173.058 19.9298 173.251 20.2668 173.365 20.6339C173.48 21.001 173.513 21.3892 173.462 21.7708V26.8984H171.915V22.1574C171.915 20.8889 171.332 20.2464 170.24 20.2464C169.975 20.2243 169.707 20.2613 169.457 20.3549C169.207 20.4485 168.98 20.5963 168.793 20.7881C168.605 20.9799 168.461 21.211 168.37 21.4652C168.279 21.7194 168.245 21.9907 168.268 22.2599V26.8984H166.723L166.723 15.856Z" fill="white"/>
<path d="M182.474 24.7543C182.264 25.4802 181.809 26.108 181.189 26.5281C180.568 26.9481 179.822 27.1336 179.08 27.052C178.564 27.0658 178.052 26.9656 177.578 26.7583C177.104 26.551 176.68 26.2416 176.336 25.8516C175.992 25.4616 175.735 25.0002 175.584 24.4996C175.434 23.999 175.392 23.4712 175.463 22.9527C175.394 22.4326 175.436 21.9036 175.587 21.4015C175.737 20.8994 175.992 20.4359 176.334 20.0425C176.677 19.649 177.099 19.3348 177.571 19.121C178.044 18.9072 178.556 18.7989 179.074 18.8034C181.253 18.8034 182.567 20.3131 182.567 22.8071V23.354H177.037V23.4418C177.013 23.7333 177.049 24.0267 177.143 24.3031C177.237 24.5796 177.387 24.8331 177.584 25.0473C177.78 25.2615 178.018 25.4318 178.283 25.5471C178.549 25.6624 178.834 25.7203 179.123 25.7171C179.493 25.7621 179.867 25.6946 180.199 25.5231C180.531 25.3517 180.805 25.0841 180.986 24.7543L182.474 24.7543ZM177.037 22.1948H180.993C181.012 21.9282 180.977 21.6605 180.888 21.4088C180.799 21.1571 180.66 20.9269 180.478 20.7332C180.297 20.5394 180.077 20.3863 179.834 20.2837C179.59 20.1811 179.329 20.1312 179.065 20.1374C178.798 20.134 178.532 20.1849 178.285 20.2871C178.037 20.3893 177.812 20.5407 177.623 20.7324C177.434 20.9242 177.285 21.1524 177.184 21.4035C177.084 21.6547 177.034 21.9237 177.037 22.1948H177.037Z" fill="white"/>
</g>
<defs>
<clipPath id="clip0_1282_36624">
<rect width="208.124" height="70.5504" fill="white" transform="translate(0.270508 0.975098)"/>
</clipPath>
</defs>
</svg>
