<svg width="236" height="72" viewBox="0 0 236 72" fill="none" xmlns="http://www.w3.org/2000/svg">
<g clip-path="url(#clip0_1282_36623)">
<path fill-rule="evenodd" clip-rule="evenodd" d="M226.579 71.5255H9.38177C4.59161 71.5255 0.69043 67.5493 0.69043 62.7067V9.79389C0.69043 4.93366 4.59161 0.975098 9.38177 0.975098H226.579C231.365 0.975098 235.27 4.93366 235.27 9.79389V62.7067C235.27 67.5493 231.365 71.5255 226.579 71.5255Z" fill="black"/>
<path fill-rule="evenodd" clip-rule="evenodd" d="M226.579 2.38698C230.597 2.38698 233.885 5.71658 233.885 9.79389V62.7067C233.885 66.784 230.618 70.1136 226.579 70.1136H9.38177C5.36408 70.1136 2.07569 66.784 2.07569 62.7067V9.79389C2.07569 5.71658 5.3425 2.38698 9.38177 2.38698H226.579ZM226.579 0.975098H9.38177C4.59161 0.975098 0.69043 4.95125 0.69043 9.79389V62.7067C0.69043 67.5669 4.59161 71.5255 9.38177 71.5255H226.579C231.365 71.5255 235.27 67.5669 235.27 62.7067V9.79389C235.27 4.95125 231.365 0.975098 226.579 0.975098Z" fill="#A6A6A6"/>
<path d="M124.268 24.3133C122.701 24.3133 121.381 23.7547 120.337 22.6551C119.301 21.5863 118.723 20.1128 118.748 18.6085C118.748 17.0031 119.284 15.644 120.337 14.5664C121.377 13.4668 122.697 12.9082 124.264 12.9082C125.813 12.9082 127.133 13.4668 128.195 14.5664C129.248 15.6792 129.783 17.0383 129.783 18.6085C129.766 20.2183 129.231 21.5775 128.195 22.6507C127.155 23.7591 125.834 24.3133 124.268 24.3133ZM77.6568 24.3133C76.1249 24.3133 74.7957 23.7635 73.7082 22.6771C72.6294 21.595 72.0813 20.2271 72.0813 18.6129C72.0813 16.9987 72.6294 15.6308 73.7082 14.5488C74.7741 13.4624 76.1033 12.9126 77.6568 12.9126C78.4164 12.9126 79.1543 13.0665 79.862 13.3788C80.5568 13.6823 81.1221 14.0958 81.5407 14.6016L81.6443 14.7291L80.4748 15.8991L80.354 15.754C79.6937 14.9535 78.8091 14.562 77.6396 14.562C76.5952 14.562 75.6847 14.9403 74.9338 15.688C74.1786 16.4401 73.7945 17.4254 73.7945 18.6173C73.7945 19.8093 74.1786 20.7945 74.9338 21.5467C75.6847 22.2944 76.5952 22.6727 77.6396 22.6727C78.753 22.6727 79.6894 22.2944 80.4187 21.5467C80.8503 21.1068 81.1178 20.491 81.2128 19.7125H77.4626V18.0675H82.8224L82.844 18.2171C82.8828 18.4942 82.9217 18.7801 82.9217 19.044C82.9217 20.5614 82.4729 21.7886 81.5839 22.6946C80.5741 23.7679 79.2536 24.3133 77.6568 24.3133ZM139.631 24.0801H137.978L132.916 15.8243L132.959 17.311V24.0757H131.306V13.1457H133.192L133.244 13.2293L138.004 21.0057L137.961 19.5234V13.1457H139.631V24.0801ZM111.848 24.0801H110.174V14.7907H107.269V13.1457H114.748V14.7907H111.844V24.0801H111.848ZM105.906 24.0801H104.236V13.1457H105.906V24.0801ZM96.5196 24.0801H94.8495V14.7907H91.9453V13.1457H99.4239V14.7907H96.5196V24.0801ZM90.888 24.0626H84.4839V13.1457H90.888V14.7907H86.1583V17.7904H90.4262V19.4178H86.1583V22.4175H90.888V24.0626ZM121.562 21.5247C122.309 22.2856 123.215 22.6683 124.268 22.6683C125.351 22.6683 126.236 22.2944 126.974 21.5247C127.707 20.7769 128.078 19.7961 128.078 18.6129C128.078 17.4298 127.707 16.4445 126.978 15.7012C126.231 14.9403 125.321 14.5576 124.272 14.5576C123.189 14.5576 122.304 14.9315 121.571 15.7012C120.837 16.4489 120.466 17.4298 120.466 18.6129C120.466 19.7961 120.833 20.7813 121.562 21.5247Z" fill="white"/>
<path fill-rule="evenodd" clip-rule="evenodd" d="M118.593 39.3462C114.515 39.3462 111.21 42.4999 111.21 46.8499C111.21 51.1603 114.537 54.3535 118.593 54.3535C122.671 54.3535 125.977 51.1779 125.977 46.8499C125.977 42.4999 122.671 39.3462 118.593 39.3462ZM118.593 51.3802C116.362 51.3802 114.442 49.4977 114.442 46.8323C114.442 44.1273 116.367 42.2843 118.593 42.2843C120.824 42.2843 122.745 44.1273 122.745 46.8323C122.749 49.5153 120.824 51.3802 118.593 51.3802ZM102.484 39.3462C98.4055 39.3462 95.0999 42.4999 95.0999 46.8499C95.0999 51.1603 98.4271 54.3535 102.484 54.3535C106.562 54.3535 109.867 51.1779 109.867 46.8499C109.867 42.4999 106.557 39.3462 102.484 39.3462ZM102.484 51.3802C100.253 51.3802 98.3322 49.4977 98.3322 46.8323C98.3322 44.1273 100.257 42.2843 102.484 42.2843C104.715 42.2843 106.635 44.1273 106.635 46.8323C106.635 49.5153 104.715 51.3802 102.484 51.3802ZM83.3143 41.6378V44.8134H90.793C90.5643 46.5948 89.986 47.9099 89.1014 48.8116C88.0052 49.9288 86.3136 51.1427 83.3316 51.1427C78.7356 51.1427 75.1408 47.3601 75.1408 42.6758C75.1408 37.9915 78.7356 34.2089 83.3316 34.2089C85.813 34.2089 87.6212 35.2073 88.9633 36.4828L91.1728 34.2309C89.3085 32.4099 86.8271 31.0156 83.3488 31.0156C77.0439 31.0156 71.7532 36.2497 71.7532 42.6582C71.7532 49.0843 77.0396 54.3008 83.3488 54.3008C86.7537 54.3008 89.3085 53.166 91.3281 51.0284C93.3866 48.9303 94.0383 45.9702 94.0383 43.5819C94.0383 42.8385 93.9822 42.17 93.8656 41.6026H83.31C83.3143 41.5982 83.3143 41.6378 83.3143 41.6378ZM161.722 44.1097C161.105 42.4251 159.241 39.3286 155.417 39.3286C151.628 39.3286 148.478 42.3679 148.478 46.8323C148.478 51.0459 151.594 54.3359 155.784 54.3359C159.15 54.3359 161.109 52.2379 161.916 51.0064L159.418 49.2998C158.589 50.5533 157.437 51.3758 155.801 51.3758C154.148 51.3758 152.992 50.6105 152.224 49.1019L162.067 44.9454C162.067 44.9498 161.722 44.1097 161.722 44.1097ZM151.684 46.6168C151.607 43.7182 153.894 42.2447 155.529 42.2447C156.82 42.2447 157.894 42.8913 158.261 43.8326L151.684 46.6168ZM143.688 53.8873H146.92V31.8425H143.688V53.8873ZM138.38 41.0132H138.263C137.534 40.1291 136.149 39.3286 134.379 39.3286C130.707 39.3286 127.323 42.623 127.323 46.8543C127.323 51.0679 130.69 54.3228 134.379 54.3228C136.127 54.3228 137.534 53.5178 138.263 52.6162H138.38V53.6938C138.38 56.5571 136.878 58.101 134.457 58.101C132.476 58.101 131.246 56.6495 130.746 55.4356L127.936 56.6319C128.743 58.6112 130.897 61.0611 134.453 61.0611C138.242 61.0611 141.452 58.7871 141.452 53.2408V39.7772H138.397V41.0132C138.401 41.0132 138.38 41.0132 138.38 41.0132ZM134.668 51.3802C132.437 51.3802 130.573 49.4801 130.573 46.8543C130.573 44.2064 132.437 42.2887 134.668 42.2887C136.878 42.2887 138.591 44.2284 138.591 46.8543C138.613 49.4801 136.882 51.3802 134.668 51.3802ZM176.856 31.8425H169.127V53.8873H172.36V45.5391H176.861C180.438 45.5391 183.955 42.8957 183.955 38.6996C183.955 34.5036 180.451 31.8425 176.856 31.8425ZM176.951 42.4603H172.355V34.895H176.951C179.372 34.895 180.74 36.9315 180.74 38.6776C180.74 40.4062 179.355 42.4603 176.951 42.4603ZM196.91 39.3066C194.563 39.3066 192.142 40.3666 191.141 42.6758L194.006 43.8897C194.623 42.6758 195.754 42.2623 196.949 42.2623C198.624 42.2623 200.315 43.2828 200.354 45.1037V45.3368C199.776 45.0025 198.507 44.4923 196.988 44.4923C193.894 44.4923 190.757 46.2165 190.757 49.4493C190.757 52.4095 193.294 54.3096 196.121 54.3096C198.291 54.3096 199.487 53.3111 200.233 52.1543H200.35V53.8609H203.466V45.416C203.466 41.4838 200.6 39.3066 196.91 39.3066ZM196.505 51.3802C195.447 51.3802 193.967 50.8524 193.967 49.4977C193.967 47.7911 195.814 47.1446 197.389 47.1446C198.814 47.1446 199.487 47.4569 200.333 47.8879C200.1 49.8672 198.46 51.3626 196.505 51.3802ZM214.833 39.7772L211.121 49.3394H211.005L207.16 39.7772H203.681L209.451 53.144L206.163 60.5729H209.529L218.406 39.7772H214.833ZM185.738 53.8873H188.97V31.8425H185.738V53.8873Z" fill="white"/>
<path fill-rule="evenodd" clip-rule="evenodd" d="M18.7465 14.2628C18.2459 14.8126 17.9568 15.6527 17.9568 16.7523V55.7529C17.9568 56.8525 18.2459 57.6926 18.7638 58.2204L18.8976 58.3392L40.3368 36.4879V35.9997L18.8803 14.144L18.7465 14.2628Z" fill="url(#paint0_linear_1282_36623)"/>
<path fill-rule="evenodd" clip-rule="evenodd" d="M47.4699 43.7936L40.3191 36.5054V35.9952L47.4699 28.707L47.6252 28.8038L56.0836 33.7036C58.5046 35.0935 58.5046 37.3895 56.0836 38.797L47.6252 43.6968L47.4699 43.7936Z" fill="url(#paint1_linear_1282_36623)"/>
<path fill-rule="evenodd" clip-rule="evenodd" d="M47.6257 43.697L40.3196 36.2505L18.7466 58.2381C19.5363 59.1002 20.8612 59.1969 22.3414 58.3569L47.6257 43.697Z" fill="url(#paint2_linear_1282_36623)"/>
<path fill-rule="evenodd" clip-rule="evenodd" d="M47.6257 28.8038L22.3414 14.1659C20.8612 13.3038 19.532 13.4226 18.7466 14.2847L40.3196 36.2503L47.6257 28.8038Z" fill="url(#paint3_linear_1282_36623)"/>
<path opacity="0.2" fill-rule="evenodd" clip-rule="evenodd" d="M47.4703 43.5386L22.3585 58.0796C20.9559 58.9021 19.7044 58.845 18.8975 58.0972L18.7637 58.2336L18.8975 58.3523C19.7044 59.0957 20.9559 59.1572 22.3585 58.3347L47.6429 43.6969L47.4703 43.5386Z" fill="black"/>
<path opacity="0.12" fill-rule="evenodd" clip-rule="evenodd" d="M56.0835 38.5421L47.4482 43.5386L47.6036 43.697L56.0619 38.7972C57.2745 38.0934 57.8701 37.1698 57.8701 36.2505C57.7967 37.095 57.1796 37.8955 56.0835 38.5421Z" fill="black"/>
<path opacity="0.25" fill-rule="evenodd" clip-rule="evenodd" d="M22.3413 14.4209L56.0839 33.9586C57.18 34.5876 57.7971 35.4101 57.8921 36.2502C57.8921 35.3309 57.2966 34.4072 56.0839 33.7035L22.3413 14.1658C19.9203 12.7539 17.9568 13.9327 17.9568 16.7521V17.0072C17.9568 14.1834 19.9203 13.0266 22.3413 14.4209Z" fill="white"/>
</g>
<defs>
<linearGradient id="paint0_linear_1282_36623" x1="38.4137" y1="16.3315" x2="3.98653" y2="25.3317" gradientUnits="userSpaceOnUse">
<stop stop-color="#00A0FF"/>
<stop offset="0.00657" stop-color="#00A1FF"/>
<stop offset="0.2601" stop-color="#00BEFF"/>
<stop offset="0.5122" stop-color="#00D2FF"/>
<stop offset="0.7604" stop-color="#00DFFF"/>
<stop offset="1" stop-color="#00E3FF"/>
</linearGradient>
<linearGradient id="paint1_linear_1282_36623" x1="59.2408" y1="36.2504" x2="17.3678" y2="36.2504" gradientUnits="userSpaceOnUse">
<stop stop-color="#FFE000"/>
<stop offset="0.4087" stop-color="#FFBD00"/>
<stop offset="0.7754" stop-color="#FFA500"/>
<stop offset="1" stop-color="#FF9C00"/>
</linearGradient>
<linearGradient id="paint2_linear_1282_36623" x1="43.6529" y1="40.3024" x2="15.3006" y2="87.122" gradientUnits="userSpaceOnUse">
<stop stop-color="#FF3A44"/>
<stop offset="1" stop-color="#C31162"/>
</linearGradient>
<linearGradient id="paint3_linear_1282_36623" x1="13.3143" y1="1.29047" x2="25.9636" y2="22.2011" gradientUnits="userSpaceOnUse">
<stop stop-color="#32A071"/>
<stop offset="0.0685" stop-color="#2DA771"/>
<stop offset="0.4762" stop-color="#15CF74"/>
<stop offset="0.8009" stop-color="#06E775"/>
<stop offset="1" stop-color="#00F076"/>
</linearGradient>
<clipPath id="clip0_1282_36623">
<rect width="234.58" height="70.5504" fill="white" transform="translate(0.69043 0.975098)"/>
</clipPath>
</defs>
</svg>
