<svg width="32" height="33" viewBox="0 0 32 33" fill="none" xmlns="http://www.w3.org/2000/svg">
<path d="M4.6225 2.56885C2.42267 2.56885 0.984375 4.01337 0.984375 5.91199C0.984375 7.76868 2.37982 9.25439 4.53809 9.25439H4.57983C6.82269 9.25439 8.21851 7.76868 8.21851 5.91199C8.17657 4.01337 6.82269 2.56885 4.6225 2.56885Z" fill="#2F3552"/>
<path d="M1.36426 11.896H7.79529V31.244H1.36426V11.896Z" fill="#2F3552"/>
<path d="M23.5804 11.4424C20.1111 11.4424 17.7847 14.7024 17.7847 14.7024V11.8965H11.3535V31.2445H17.7844V20.4398C17.7844 19.8614 17.8263 19.2839 17.9962 18.8702C18.4611 17.7152 19.5191 16.5186 21.2958 16.5186C23.6229 16.5186 24.5536 18.2929 24.5536 20.8939V31.2445H30.9841V20.1507C30.9841 14.2078 27.8112 11.4424 23.5804 11.4424Z" fill="#2F3552"/>
</svg>
