<svg width="311" height="50" viewBox="0 0 311 50" fill="none" xmlns="http://www.w3.org/2000/svg">
<g clip-path="url(#clip0_298_14041)">
<path d="M22.1189 30.5155C22.1082 36.9858 23.7547 43.3701 26.9289 49.1664C26.8117 49.1733 26.6941 49.1733 26.5769 49.1664C26.0167 49.1793 25.4633 49.0527 24.977 48.8006L3.4175 37.5454C2.36861 36.9947 1.49971 36.202 0.8994 35.2479C0.299088 34.2939 -0.0111446 33.2128 0.000305869 32.1147V3.48417C0.00794795 3.00252 0.153821 2.53096 0.423576 2.11583C0.693331 1.70069 1.07769 1.35628 1.53889 1.11642C2.00008 0.876566 2.52224 0.749526 3.05405 0.747786C3.58586 0.746046 4.10903 0.869666 4.57212 1.1065L26.5303 12.6009C23.6172 18.2041 22.1106 24.3222 22.1189 30.5155Z" fill="#3051BB"/>
<path d="M53.1431 3.40444V7.53606C46.9077 10.9639 42.2837 16.351 40.1532 22.6695C38.0227 28.988 38.5349 35.7958 41.5919 41.7942L33.4631 46.0525C30.8482 41.2161 29.4932 35.9007 29.5022 30.5155C29.5022 29.5776 29.5436 28.6397 29.6265 27.6736C30.0154 22.9922 31.4468 18.4306 33.8342 14.2637C36.2216 10.0968 39.5157 6.41082 43.5179 3.42789C45.2162 2.14761 47.0801 1.00332 49.3168 0.712563C49.9125 0.624383 50.5226 0.664549 51.0979 0.829805C51.51 0.959866 51.8868 1.16814 52.2028 1.44069C52.5189 1.71325 52.7671 2.0438 52.9308 2.41023C53.0712 2.72626 53.1433 3.06378 53.1431 3.40444Z" fill="#3051BB"/>
<path d="M46.2258 30.5155C46.2221 27.7816 46.833 25.0756 48.0214 22.5625C49.2097 20.0494 50.9506 17.7817 53.1379 15.8978V32.0913C53.1475 33.1953 52.8363 34.2821 52.2356 35.2427C51.6349 36.2034 50.7658 37.0039 49.7155 37.5641L48.0121 38.4599C46.8269 35.9492 46.2191 33.2461 46.2258 30.5155Z" fill="#3051BB"/>
<path d="M67.1226 33.4651V10.7952H72.3727L80.5584 23.4902L88.7701 10.7952H94.0201V33.4651H88.8736V18.702L81.946 29.4554H79.1967L72.2743 18.702V33.4651H67.1226Z" fill="#3051BB"/>
<path d="M99.7828 18.702C100.664 17.8701 101.726 17.2116 102.901 16.7679C104.076 16.3241 105.339 16.1044 106.612 16.1227C109.188 16.1325 111.655 17.0616 113.479 18.7086C115.303 20.3556 116.337 22.5876 116.356 24.9205C116.345 27.2583 115.315 29.4975 113.49 31.1505C111.665 32.8036 109.193 33.7366 106.612 33.7465C105.335 33.7637 104.068 33.5418 102.89 33.0947C101.712 32.6477 100.649 31.9851 99.7673 31.1484C97.948 29.4965 96.9263 27.2585 96.9263 24.9252C96.9263 22.5919 97.948 20.3539 99.7673 18.702H99.7828ZM101.787 24.9205C101.787 26.0785 102.294 27.189 103.198 28.0078C104.102 28.8266 105.328 29.2866 106.607 29.2866C107.885 29.2866 109.111 28.8266 110.015 28.0078C110.919 27.189 111.427 26.0785 111.427 24.9205C111.427 23.7626 110.919 22.652 110.015 21.8332C109.111 21.0144 107.885 20.5544 106.607 20.5544C105.328 20.5544 104.102 21.0144 103.198 21.8332C102.294 22.652 101.787 23.7626 101.787 24.9205Z" fill="#3051BB"/>
<path d="M119.069 33.4651V16.3712H123.46L123.765 18.8567C124.304 18.0405 125.052 17.3537 125.945 16.8542C126.868 16.3419 127.933 16.0783 129.015 16.0945C130.043 16.0538 131.067 16.2257 132.009 16.5971C132.952 16.9684 133.789 17.5295 134.457 18.2377C135.803 19.6696 136.476 21.8347 136.476 24.7329V33.4651H131.661V24.7329C131.661 23.3041 131.288 22.2208 130.543 21.483C130.191 21.1353 129.763 20.8577 129.286 20.6678C128.809 20.4779 128.294 20.3798 127.773 20.3798C127.252 20.3798 126.737 20.4779 126.26 20.6678C125.783 20.8577 125.355 21.1353 125.003 21.483C124.271 22.2177 123.905 23.301 123.905 24.7329V33.4651H119.069Z" fill="#3051BB"/>
<path d="M141.711 18.702C142.606 17.8845 143.671 17.2357 144.845 16.793C146.018 16.3502 147.277 16.1222 148.548 16.1222C149.819 16.1222 151.078 16.3502 152.251 16.793C153.425 17.2357 154.49 17.8845 155.385 18.702C156.29 19.5143 157.004 20.4839 157.484 21.5525C157.965 22.6212 158.202 23.7668 158.181 24.9205C158.171 25.5024 158.124 26.0833 158.041 26.6604H144.062C144.32 27.5598 144.938 28.3402 145.796 28.8505C146.73 29.4275 147.84 29.7259 148.97 29.704C149.78 29.7423 150.59 29.6204 151.342 29.3466C152.095 29.0729 152.773 28.6539 153.329 28.1189L157.202 30.3277C156.244 31.4092 155.009 32.2624 153.604 32.8132C152.144 33.4271 150.554 33.7471 148.944 33.7512C147.611 33.7878 146.284 33.5793 145.043 33.1384C143.801 32.6975 142.671 32.0333 141.721 31.1859C140.794 30.3771 140.061 29.4035 139.568 28.3262C139.076 27.2489 138.834 26.0911 138.858 24.9252C138.842 23.7668 139.087 22.6177 139.578 21.5478C140.068 20.4779 140.794 19.5096 141.711 18.702ZM144.077 23.1759H153.169C153.092 22.7524 152.922 22.3472 152.668 21.9847C152.415 21.6221 152.083 21.3095 151.693 21.0656C150.794 20.4698 149.701 20.1628 148.587 20.1933C147.495 20.1584 146.423 20.4665 145.553 21.0656C144.783 21.5736 144.255 22.3282 144.077 23.1759Z" fill="#3051BB"/>
<path d="M158.01 39.9885L159.346 36.1195C160.031 36.335 160.749 36.4505 161.474 36.4618C163.307 36.4618 164.656 35.2707 165.523 32.8883L158.248 16.3712H163.426L167.682 26.9371L171.824 16.3712H176.934L170.291 33.4651C169.307 36.0101 168.123 37.839 166.739 38.9521C165.344 40.0628 163.538 40.6557 161.681 40.6122C160.424 40.625 159.176 40.413 158.01 39.9885Z" fill="#3051BB"/>
<path d="M187.993 10.7952H204.499V15.2738H193.109V19.9776H203.811V24.4515H193.109V33.4651H187.993V10.7952Z" fill="#3051BB"/>
<path d="M208.963 18.702C209.858 17.8845 210.923 17.2357 212.096 16.793C213.27 16.3502 214.528 16.1222 215.8 16.1222C217.071 16.1222 218.329 16.3502 219.503 16.793C220.676 17.2357 221.741 17.8845 222.637 18.702C223.541 19.5143 224.255 20.4839 224.736 21.5525C225.216 22.6212 225.453 23.7668 225.432 24.9205C225.422 25.5022 225.377 26.083 225.298 26.6604H211.318C211.576 27.5591 212.192 28.3394 213.048 28.8505C213.979 29.4248 215.085 29.723 216.211 29.704C217.021 29.743 217.831 29.6213 218.584 29.3475C219.337 29.0738 220.015 28.6544 220.571 28.1189L224.495 30.3277C223.528 31.4107 222.284 32.2639 220.871 32.8132C219.411 33.4271 217.821 33.7471 216.211 33.7512C214.878 33.7878 213.551 33.5793 212.31 33.1384C211.068 32.6975 209.939 32.0333 208.988 31.1859C208.061 30.3771 207.328 29.4035 206.835 28.3262C206.343 27.2489 206.101 26.0911 206.125 24.9252C206.108 23.7678 206.35 22.6193 206.838 21.5495C207.326 20.4796 208.048 19.5108 208.963 18.702ZM220.426 23.1759C220.347 22.753 220.176 22.3485 219.923 21.9862C219.669 21.6238 219.339 21.3108 218.95 21.0656C218.05 20.4711 216.957 20.1642 215.844 20.1933C214.75 20.1584 213.676 20.4665 212.804 21.0656C212.032 21.5716 211.504 22.3271 211.329 23.1759H220.426Z" fill="#3051BB"/>
<path d="M232.842 33.4651H228.001V9.22413H232.842V33.4651Z" fill="#3051BB"/>
<path d="M241.312 33.4651H236.476V9.22413H241.312V33.4651Z" fill="#3051BB"/>
<path d="M246.873 18.702C247.753 17.8702 248.814 17.2118 249.988 16.768C251.162 16.3242 252.425 16.1045 253.697 16.1227C256.273 16.1325 258.74 17.0616 260.564 18.7086C262.388 20.3556 263.422 22.5876 263.441 24.9205C263.43 27.2583 262.4 29.4975 260.575 31.1505C258.75 32.8036 256.278 33.7366 253.697 33.7465C252.42 33.7631 251.153 33.541 249.975 33.0939C248.798 32.6469 247.734 31.9846 246.852 31.1484C245.94 30.3376 245.22 29.3675 244.734 28.297C244.248 27.2265 244.007 26.0778 244.025 24.9205C244.006 23.7628 244.248 22.6137 244.738 21.5441C245.228 20.4746 245.954 19.5073 246.873 18.702ZM248.897 24.9205C248.893 25.7868 249.173 26.6346 249.702 27.3563C250.231 28.078 250.985 28.6412 251.868 28.9742C252.751 29.3071 253.723 29.395 254.661 29.2266C255.599 29.0581 256.461 28.641 257.137 28.0282C257.813 27.4153 258.272 26.6343 258.457 25.7844C258.642 24.9345 258.544 24.054 258.175 23.2547C257.807 22.4553 257.184 21.7732 256.387 21.295C255.59 20.8167 254.653 20.5638 253.697 20.5685C253.066 20.5685 252.442 20.6811 251.859 20.8998C251.276 21.1186 250.747 21.4393 250.301 21.8434C249.855 22.2476 249.502 22.7274 249.261 23.2554C249.02 23.7834 248.897 24.3492 248.897 24.9205Z" fill="#3051BB"/>
<path d="M263.892 16.3712H269.023L272.74 26.7401L276.411 16.39H281.283L284.99 26.7401L288.697 16.3712H293.844L287.356 33.4651H282.655L278.86 23.3354L275.085 33.4651H270.348L263.892 16.3712Z" fill="#3051BB"/>
<path d="M297.96 28.086C298.633 28.66 299.443 29.0867 300.326 29.3335C301.275 29.6352 302.272 29.7936 303.277 29.8025C305.176 29.8025 306.125 29.3569 306.125 28.4659C306.125 28.072 305.752 27.7484 305.012 27.4858C304.128 27.1897 303.221 26.9515 302.299 26.7729C301.217 26.5491 300.152 26.264 299.109 25.9194C298.05 25.5688 297.113 24.9681 296.396 24.1795C295.635 23.3167 295.24 22.2352 295.283 21.1312C295.263 20.4125 295.437 19.7001 295.789 19.056C296.142 18.412 296.663 17.8557 297.308 17.4357C298.657 16.4978 300.43 16.0288 302.625 16.0288C306.104 16.0288 308.724 16.9668 310.485 18.8427L307.601 21.4876C307.001 20.9271 306.25 20.5195 305.421 20.3058C304.565 20.0459 303.668 19.9098 302.765 19.9025C302.099 19.8745 301.435 19.9852 300.823 20.2261C300.624 20.296 300.451 20.417 300.326 20.5744C300.201 20.7318 300.129 20.9188 300.119 21.1125C300.119 21.4658 300.492 21.7612 301.237 21.9988C302.131 22.2751 303.043 22.5037 303.966 22.6835C305.054 22.9038 306.125 23.189 307.171 23.537C308.231 23.8864 309.168 24.4873 309.884 25.2769C310.642 26.1287 311.037 27.1988 310.997 28.2924C310.997 30.1151 310.271 31.4986 308.817 32.4428C307.182 33.4319 305.242 33.9246 303.277 33.8497C301.69 33.8415 300.115 33.5942 298.618 33.1181C297.141 32.6862 295.802 31.9345 294.719 30.928L297.96 28.086Z" fill="#3051BB"/>
</g>
<defs>
<clipPath id="clip0_298_14041">
<rect width="311" height="48.5046" fill="white" transform="translate(0 0.666992)"/>
</clipPath>
</defs>
</svg>
