<svg width="32" height="33" viewBox="0 0 32 33" fill="none" xmlns="http://www.w3.org/2000/svg">
<g clip-path="url(#clip0)">
<path d="M32 7.02234C30.81 7.54434 29.542 7.89034 28.22 8.05834C29.58 7.24634 30.618 5.97034 31.106 4.43234C29.838 5.18834 28.438 5.72234 26.946 6.02034C25.742 4.73834 24.026 3.94434 22.154 3.94434C18.522 3.94434 15.598 6.89234 15.598 10.5063C15.598 11.0263 15.642 11.5263 15.75 12.0023C10.296 11.7363 5.47 9.12234 2.228 5.14034C1.662 6.12234 1.33 7.24634 1.33 8.45634C1.33 10.7283 2.5 12.7423 4.244 13.9083C3.19 13.8883 2.156 13.5823 1.28 13.1003C1.28 13.1203 1.28 13.1463 1.28 13.1723C1.28 16.3603 3.554 19.0083 6.536 19.6183C6.002 19.7643 5.42 19.8343 4.816 19.8343C4.396 19.8343 3.972 19.8103 3.574 19.7223C4.424 22.3203 6.836 24.2303 9.704 24.2923C7.472 26.0383 4.638 27.0903 1.57 27.0903C1.032 27.0903 0.516 27.0663 0 27.0003C2.906 28.8743 6.35 29.9443 10.064 29.9443C22.136 29.9443 28.736 19.9443 28.736 11.2763C28.736 10.9863 28.726 10.7063 28.712 10.4283C30.014 9.50434 31.108 8.35034 32 7.02234Z" fill="#2F3552"/>
</g>
<defs>
<clipPath id="clip0">
<rect width="32" height="32" fill="white" transform="translate(0 0.944336)"/>
</clipPath>
</defs>
</svg>
